<mxfile host="app.diagrams.net" modified="2024-04-22T06:39:10.609Z" agent="Mozilla/5.0 (Macintosh; Intel Mac OS X 10_15_7) AppleWebKit/537.36 (KHTML, like Gecko) Chrome/123.0.0.0 Safari/537.36" etag="kabmE5wEjJTqiXnjsrq_" version="24.2.5" type="github">
  <diagram name="第 1 页" id="zitSXmNSvfHHyf0LkOl1">
    <mxGraphModel dx="1242" dy="730" grid="1" gridSize="10" guides="1" tooltips="1" connect="1" arrows="1" fold="1" page="1" pageScale="1" pageWidth="827" pageHeight="1169" math="0" shadow="0">
      <root>
        <mxCell id="0" />
        <mxCell id="1" parent="0" />
        <mxCell id="dqSeUdwMj79d5CSX7N9E-10" value="" style="rounded=0;whiteSpace=wrap;html=1;dashed=1;" vertex="1" parent="1">
          <mxGeometry x="360" y="290" width="110" height="110" as="geometry" />
        </mxCell>
        <mxCell id="dqSeUdwMj79d5CSX7N9E-1" value="" style="rounded=0;whiteSpace=wrap;html=1;" vertex="1" parent="1">
          <mxGeometry x="180" y="130" width="290" height="60" as="geometry" />
        </mxCell>
        <mxCell id="dqSeUdwMj79d5CSX7N9E-6" style="edgeStyle=orthogonalEdgeStyle;rounded=0;orthogonalLoop=1;jettySize=auto;html=1;exitX=1;exitY=0.5;exitDx=0;exitDy=0;entryX=0;entryY=0.5;entryDx=0;entryDy=0;" edge="1" parent="1" source="dqSeUdwMj79d5CSX7N9E-2" target="dqSeUdwMj79d5CSX7N9E-5">
          <mxGeometry relative="1" as="geometry" />
        </mxCell>
        <mxCell id="dqSeUdwMj79d5CSX7N9E-2" value="metrics-adapter" style="rounded=0;whiteSpace=wrap;html=1;" vertex="1" parent="1">
          <mxGeometry x="340" y="145" width="120" height="30" as="geometry" />
        </mxCell>
        <mxCell id="dqSeUdwMj79d5CSX7N9E-5" value="TMP 母机监控" style="rounded=0;whiteSpace=wrap;html=1;" vertex="1" parent="1">
          <mxGeometry x="530" y="145" width="120" height="30" as="geometry" />
        </mxCell>
        <mxCell id="dqSeUdwMj79d5CSX7N9E-7" value="apiserver" style="whiteSpace=wrap;html=1;" vertex="1" parent="1">
          <mxGeometry x="190" y="145" width="120" height="30" as="geometry" />
        </mxCell>
        <mxCell id="dqSeUdwMj79d5CSX7N9E-8" value="" style="rounded=0;whiteSpace=wrap;html=1;" vertex="1" parent="1">
          <mxGeometry x="375" y="352" width="20" height="40" as="geometry" />
        </mxCell>
        <mxCell id="dqSeUdwMj79d5CSX7N9E-9" value="" style="shape=document;whiteSpace=wrap;html=1;boundedLbl=1;rotation=-180;fillColor=#1ba1e2;fontColor=#ffffff;strokeColor=#000000;size=0.2;" vertex="1" parent="1">
          <mxGeometry x="375" y="382" width="20" height="10" as="geometry" />
        </mxCell>
        <mxCell id="dqSeUdwMj79d5CSX7N9E-24" value="" style="rounded=0;whiteSpace=wrap;html=1;" vertex="1" parent="1">
          <mxGeometry x="405" y="352" width="20" height="40" as="geometry" />
        </mxCell>
        <mxCell id="dqSeUdwMj79d5CSX7N9E-25" value="" style="shape=document;whiteSpace=wrap;html=1;boundedLbl=1;rotation=-180;fillColor=#1ba1e2;fontColor=#ffffff;strokeColor=#000000;size=0.2;" vertex="1" parent="1">
          <mxGeometry x="405" y="382" width="20" height="10" as="geometry" />
        </mxCell>
        <mxCell id="dqSeUdwMj79d5CSX7N9E-26" value="" style="rounded=0;whiteSpace=wrap;html=1;" vertex="1" parent="1">
          <mxGeometry x="435" y="352" width="20" height="40" as="geometry" />
        </mxCell>
        <mxCell id="dqSeUdwMj79d5CSX7N9E-27" value="" style="shape=document;whiteSpace=wrap;html=1;boundedLbl=1;rotation=-180;fillColor=#1ba1e2;fontColor=#ffffff;strokeColor=#000000;size=0.2;" vertex="1" parent="1">
          <mxGeometry x="435" y="374" width="20" height="18" as="geometry" />
        </mxCell>
        <mxCell id="dqSeUdwMj79d5CSX7N9E-35" value="" style="rounded=0;whiteSpace=wrap;html=1;" vertex="1" parent="1">
          <mxGeometry x="375" y="300" width="80" height="40" as="geometry" />
        </mxCell>
        <mxCell id="dqSeUdwMj79d5CSX7N9E-36" value="eks" style="text;html=1;align=center;verticalAlign=middle;whiteSpace=wrap;rounded=0;fontSize=8;" vertex="1" parent="1">
          <mxGeometry x="375" y="349" width="20" height="14" as="geometry" />
        </mxCell>
        <mxCell id="dqSeUdwMj79d5CSX7N9E-38" value="eks" style="text;html=1;align=center;verticalAlign=middle;whiteSpace=wrap;rounded=0;fontSize=8;" vertex="1" parent="1">
          <mxGeometry x="405" y="349" width="20" height="14" as="geometry" />
        </mxCell>
        <mxCell id="dqSeUdwMj79d5CSX7N9E-39" value="eks" style="text;html=1;align=center;verticalAlign=middle;whiteSpace=wrap;rounded=0;fontSize=8;" vertex="1" parent="1">
          <mxGeometry x="435" y="350" width="20" height="14" as="geometry" />
        </mxCell>
        <mxCell id="dqSeUdwMj79d5CSX7N9E-40" value="物理机（正常）" style="text;html=1;align=center;verticalAlign=middle;whiteSpace=wrap;rounded=0;fontSize=10;" vertex="1" parent="1">
          <mxGeometry x="377.5" y="400" width="75" height="30" as="geometry" />
        </mxCell>
        <mxCell id="dqSeUdwMj79d5CSX7N9E-41" value="" style="rounded=0;whiteSpace=wrap;html=1;dashed=1;" vertex="1" parent="1">
          <mxGeometry x="230" y="290" width="110" height="110" as="geometry" />
        </mxCell>
        <mxCell id="dqSeUdwMj79d5CSX7N9E-42" value="" style="rounded=0;whiteSpace=wrap;html=1;" vertex="1" parent="1">
          <mxGeometry x="245" y="352" width="20" height="40" as="geometry" />
        </mxCell>
        <mxCell id="dqSeUdwMj79d5CSX7N9E-43" value="" style="shape=document;whiteSpace=wrap;html=1;boundedLbl=1;rotation=-180;fillColor=#1ba1e2;fontColor=#ffffff;strokeColor=#000000;size=0.2;" vertex="1" parent="1">
          <mxGeometry x="245" y="382" width="20" height="10" as="geometry" />
        </mxCell>
        <mxCell id="dqSeUdwMj79d5CSX7N9E-44" value="" style="rounded=0;whiteSpace=wrap;html=1;" vertex="1" parent="1">
          <mxGeometry x="275" y="352" width="20" height="40" as="geometry" />
        </mxCell>
        <mxCell id="dqSeUdwMj79d5CSX7N9E-45" value="" style="shape=document;whiteSpace=wrap;html=1;boundedLbl=1;rotation=-180;fillColor=#1ba1e2;fontColor=#ffffff;strokeColor=#000000;size=0.2;" vertex="1" parent="1">
          <mxGeometry x="275" y="382" width="20" height="10" as="geometry" />
        </mxCell>
        <mxCell id="dqSeUdwMj79d5CSX7N9E-46" value="" style="rounded=0;whiteSpace=wrap;html=1;" vertex="1" parent="1">
          <mxGeometry x="305" y="352" width="20" height="40" as="geometry" />
        </mxCell>
        <mxCell id="dqSeUdwMj79d5CSX7N9E-47" value="" style="shape=document;whiteSpace=wrap;html=1;boundedLbl=1;rotation=-180;fillColor=#1ba1e2;fontColor=#ffffff;strokeColor=#000000;size=0.2;" vertex="1" parent="1">
          <mxGeometry x="305" y="374" width="20" height="18" as="geometry" />
        </mxCell>
        <mxCell id="dqSeUdwMj79d5CSX7N9E-48" value="" style="rounded=0;whiteSpace=wrap;html=1;" vertex="1" parent="1">
          <mxGeometry x="245" y="300" width="80" height="40" as="geometry" />
        </mxCell>
        <mxCell id="dqSeUdwMj79d5CSX7N9E-49" value="eks" style="text;html=1;align=center;verticalAlign=middle;whiteSpace=wrap;rounded=0;fontSize=8;" vertex="1" parent="1">
          <mxGeometry x="245" y="349" width="20" height="14" as="geometry" />
        </mxCell>
        <mxCell id="dqSeUdwMj79d5CSX7N9E-50" value="eks" style="text;html=1;align=center;verticalAlign=middle;whiteSpace=wrap;rounded=0;fontSize=8;" vertex="1" parent="1">
          <mxGeometry x="275" y="349" width="20" height="14" as="geometry" />
        </mxCell>
        <mxCell id="dqSeUdwMj79d5CSX7N9E-51" value="eks" style="text;html=1;align=center;verticalAlign=middle;whiteSpace=wrap;rounded=0;fontSize=8;" vertex="1" parent="1">
          <mxGeometry x="305" y="350" width="20" height="14" as="geometry" />
        </mxCell>
        <mxCell id="dqSeUdwMj79d5CSX7N9E-52" value="物理机（高负载）" style="text;html=1;align=center;verticalAlign=middle;whiteSpace=wrap;rounded=0;fontSize=10;" vertex="1" parent="1">
          <mxGeometry x="233.75" y="400" width="102.5" height="30" as="geometry" />
        </mxCell>
        <mxCell id="dqSeUdwMj79d5CSX7N9E-53" value="" style="rounded=0;whiteSpace=wrap;html=1;dashed=1;" vertex="1" parent="1">
          <mxGeometry x="100" y="290" width="110" height="110" as="geometry" />
        </mxCell>
        <mxCell id="dqSeUdwMj79d5CSX7N9E-54" value="" style="rounded=0;whiteSpace=wrap;html=1;" vertex="1" parent="1">
          <mxGeometry x="115" y="352" width="20" height="40" as="geometry" />
        </mxCell>
        <mxCell id="dqSeUdwMj79d5CSX7N9E-55" value="" style="shape=document;whiteSpace=wrap;html=1;boundedLbl=1;rotation=-180;fillColor=#1ba1e2;fontColor=#ffffff;strokeColor=#000000;size=0.2;" vertex="1" parent="1">
          <mxGeometry x="115" y="382" width="20" height="10" as="geometry" />
        </mxCell>
        <mxCell id="dqSeUdwMj79d5CSX7N9E-56" value="" style="rounded=0;whiteSpace=wrap;html=1;" vertex="1" parent="1">
          <mxGeometry x="145" y="352" width="20" height="40" as="geometry" />
        </mxCell>
        <mxCell id="dqSeUdwMj79d5CSX7N9E-57" value="" style="shape=document;whiteSpace=wrap;html=1;boundedLbl=1;rotation=-180;fillColor=#1ba1e2;fontColor=#ffffff;strokeColor=#000000;size=0.2;" vertex="1" parent="1">
          <mxGeometry x="145" y="382" width="20" height="10" as="geometry" />
        </mxCell>
        <mxCell id="dqSeUdwMj79d5CSX7N9E-58" value="" style="rounded=0;whiteSpace=wrap;html=1;" vertex="1" parent="1">
          <mxGeometry x="175" y="352" width="20" height="40" as="geometry" />
        </mxCell>
        <mxCell id="dqSeUdwMj79d5CSX7N9E-59" value="" style="shape=document;whiteSpace=wrap;html=1;boundedLbl=1;rotation=-180;fillColor=#1ba1e2;fontColor=#ffffff;strokeColor=#000000;size=0.2;" vertex="1" parent="1">
          <mxGeometry x="175" y="374" width="20" height="18" as="geometry" />
        </mxCell>
        <mxCell id="dqSeUdwMj79d5CSX7N9E-61" value="eks" style="text;html=1;align=center;verticalAlign=middle;whiteSpace=wrap;rounded=0;fontSize=8;" vertex="1" parent="1">
          <mxGeometry x="115" y="349" width="20" height="14" as="geometry" />
        </mxCell>
        <mxCell id="dqSeUdwMj79d5CSX7N9E-62" value="eks" style="text;html=1;align=center;verticalAlign=middle;whiteSpace=wrap;rounded=0;fontSize=8;" vertex="1" parent="1">
          <mxGeometry x="145" y="349" width="20" height="14" as="geometry" />
        </mxCell>
        <mxCell id="dqSeUdwMj79d5CSX7N9E-63" value="eks" style="text;html=1;align=center;verticalAlign=middle;whiteSpace=wrap;rounded=0;fontSize=8;" vertex="1" parent="1">
          <mxGeometry x="175" y="350" width="20" height="14" as="geometry" />
        </mxCell>
        <mxCell id="dqSeUdwMj79d5CSX7N9E-64" value="物理机（内存不足）" style="text;html=1;align=center;verticalAlign=middle;whiteSpace=wrap;rounded=0;fontSize=10;" vertex="1" parent="1">
          <mxGeometry x="108.75" y="400" width="92.5" height="30" as="geometry" />
        </mxCell>
        <mxCell id="dqSeUdwMj79d5CSX7N9E-65" value="" style="rounded=0;whiteSpace=wrap;html=1;" vertex="1" parent="1">
          <mxGeometry x="115" y="300" width="20" height="40" as="geometry" />
        </mxCell>
        <mxCell id="dqSeUdwMj79d5CSX7N9E-66" value="eks" style="text;html=1;align=center;verticalAlign=middle;whiteSpace=wrap;rounded=0;fontSize=8;" vertex="1" parent="1">
          <mxGeometry x="115" y="297" width="20" height="14" as="geometry" />
        </mxCell>
        <mxCell id="dqSeUdwMj79d5CSX7N9E-67" value="" style="shape=document;whiteSpace=wrap;html=1;boundedLbl=1;rotation=-180;fillColor=#1ba1e2;fontColor=#ffffff;strokeColor=#000000;size=0.2;" vertex="1" parent="1">
          <mxGeometry x="115" y="330" width="20" height="10" as="geometry" />
        </mxCell>
        <mxCell id="dqSeUdwMj79d5CSX7N9E-68" value="crane" style="rounded=0;whiteSpace=wrap;html=1;fontSize=10;" vertex="1" parent="1">
          <mxGeometry x="252" y="311" width="29" height="20" as="geometry" />
        </mxCell>
        <mxCell id="dqSeUdwMj79d5CSX7N9E-69" value="" style="rounded=0;whiteSpace=wrap;html=1;fontSize=10;" vertex="1" parent="1">
          <mxGeometry x="292" y="307" width="20" height="20" as="geometry" />
        </mxCell>
        <mxCell id="dqSeUdwMj79d5CSX7N9E-74" value="" style="rounded=0;whiteSpace=wrap;html=1;fontSize=10;" vertex="1" parent="1">
          <mxGeometry x="295.25" y="310" width="20" height="20" as="geometry" />
        </mxCell>
        <mxCell id="dqSeUdwMj79d5CSX7N9E-73" value="scf" style="rounded=0;whiteSpace=wrap;html=1;fontSize=10;" vertex="1" parent="1">
          <mxGeometry x="299.25" y="313" width="20" height="20" as="geometry" />
        </mxCell>
      </root>
    </mxGraphModel>
  </diagram>
</mxfile>
